<?xml version="1.0" standalone="no"?><svg xmlns:xlink="http://www.w3.org/1999/xlink" xmlns="http://www.w3.org/2000/svg" viewBox="0 0 2000 1125" preserveAspectRatio="xMaxYMax slice"><g transform="scale(2.9761904761904763)"><rect x="0" y="0" width="672" height="378" fill="#1B1B1E"/><circle cx="21" cy="21" r="4.2" fill="#263448"/><circle cx="63" cy="21" r="4.2" fill="#212834"/><circle cx="105" cy="21" r="4.2" fill="#1d2128"/><circle cx="147" cy="21" r="4.2" fill="#151517"/><circle cx="189" cy="21" r="4.2" fill="#1a1a1c"/><circle cx="231" cy="21" r="4.2" fill="#0f0f10"/><circle cx="273" cy="21" r="4.2" fill="#19191c"/><circle cx="315" cy="21" r="4.2" fill="#1f242e"/><circle cx="357" cy="21" r="4.2" fill="#111113"/><circle cx="399" cy="21" r="4.2" fill="#253245"/><circle cx="441" cy="21" r="4.2" fill="#101012"/><circle cx="483" cy="21" r="4.2" fill="#1e2229"/><circle cx="525" cy="21" r="4.2" fill="#26354a"/><circle cx="567" cy="21" r="4.2" fill="#1c1d22"/><circle cx="609" cy="21" r="4.2" fill="#0d0d0e"/><circle cx="651" cy="21" r="4.2" fill="#27374d"/><circle cx="21" cy="63" r="4.2" fill="#030304"/><circle cx="63" cy="63" r="4.2" fill="#19191b"/><circle cx="105" cy="63" r="4.2" fill="#212834"/><circle cx="147" cy="63" r="4.2" fill="#1d2127"/><circle cx="189" cy="63" r="4.2" fill="#0b0b0c"/><circle cx="231" cy="63" r="4.2" fill="#09090a"/><circle cx="273" cy="63" r="4.2" fill="#202630"/><circle cx="315" cy="63" r="4.2" fill="#161618"/><circle cx="357" cy="63" r="4.2" fill="#212834"/><circle cx="399" cy="63" r="4.2" fill="#141416"/><circle cx="441" cy="63" r="4.2" fill="#161619"/><circle cx="483" cy="63" r="4.2" fill="#1b1b1f"/><circle cx="525" cy="63" r="4.2" fill="#0b0b0c"/><circle cx="567" cy="63" r="4.2" fill="#0b0b0d"/><circle cx="609" cy="63" r="4.2" fill="#000000"/><circle cx="651" cy="63" r="4.2" fill="#212935"/><circle cx="21" cy="105" r="4.2" fill="#030304"/><circle cx="63" cy="105" r="4.2" fill="#232e3d"/><circle cx="105" cy="105" r="4.2" fill="#222c3b"/><circle cx="147" cy="105" r="4.2" fill="#26354a"/><circle cx="189" cy="105" r="4.2" fill="#222b39"/><circle cx="231" cy="105" r="4.2" fill="#253144"/><circle cx="273" cy="105" r="4.2" fill="#151517"/><circle cx="315" cy="105" r="4.2" fill="#232d3c"/><circle cx="357" cy="105" r="4.2" fill="#212935"/><circle cx="399" cy="105" r="4.2" fill="#09090a"/><circle cx="441" cy="105" r="4.2" fill="#263549"/><circle cx="483" cy="105" r="4.2" fill="#020202"/><circle cx="525" cy="105" r="4.2" fill="#212834"/><circle cx="567" cy="105" r="4.2" fill="#151517"/><circle cx="609" cy="105" r="4.2" fill="#243143"/><circle cx="651" cy="105" r="4.2" fill="#161618"/><circle cx="21" cy="147" r="4.2" fill="#253144"/><circle cx="63" cy="147" r="4.2" fill="#09090a"/><circle cx="105" cy="147" r="4.2" fill="#1c1d21"/><circle cx="147" cy="147" r="4.2" fill="#27374c"/><circle cx="189" cy="147" r="4.2" fill="#26354a"/><circle cx="231" cy="147" r="4.2" fill="#232e3e"/><circle cx="273" cy="147" r="4.2" fill="#0a0a0b"/><circle cx="315" cy="147" r="4.2" fill="#1c1e23"/><circle cx="357" cy="147" r="4.2" fill="#151518"/><circle cx="399" cy="147" r="4.2" fill="#17171a"/><circle cx="441" cy="147" r="4.2" fill="#020202"/><circle cx="483" cy="147" r="4.2" fill="#26354a"/><circle cx="525" cy="147" r="4.2" fill="#17171a"/><circle cx="567" cy="147" r="4.2" fill="#060606"/><circle cx="609" cy="147" r="4.2" fill="#242f3f"/><circle cx="651" cy="147" r="4.2" fill="#253245"/><circle cx="21" cy="189" r="4.2" fill="#0d0d0e"/><circle cx="63" cy="189" r="4.2" fill="#1c1c20"/><circle cx="105" cy="189" r="4.2" fill="#1f242e"/><circle cx="147" cy="189" r="4.2" fill="#1e2129"/><circle cx="189" cy="189" r="4.2" fill="#1b1b1e"/><circle cx="231" cy="189" r="4.2" fill="#030303"/><circle cx="273" cy="189" r="4.2" fill="#1b1b1f"/><circle cx="315" cy="189" r="4.2" fill="#222c3a"/><circle cx="357" cy="189" r="4.2" fill="#202630"/><circle cx="399" cy="189" r="4.2" fill="#242f40"/><circle cx="441" cy="189" r="4.2" fill="#263448"/><circle cx="483" cy="189" r="4.2" fill="#121214"/><circle cx="525" cy="189" r="4.2" fill="#1c1d21"/><circle cx="567" cy="189" r="4.2" fill="#080809"/><circle cx="609" cy="189" r="4.2" fill="#222b3a"/><circle cx="651" cy="189" r="4.2" fill="#030303"/><circle cx="21" cy="231" r="4.2" fill="#131315"/><circle cx="63" cy="231" r="4.2" fill="#19191c"/><circle cx="105" cy="231" r="4.2" fill="#1d1f24"/><circle cx="147" cy="231" r="4.2" fill="#1d2027"/><circle cx="189" cy="231" r="4.2" fill="#26364b"/><circle cx="231" cy="231" r="4.2" fill="#131316"/><circle cx="273" cy="231" r="4.2" fill="#1e232b"/><circle cx="315" cy="231" r="4.2" fill="#253346"/><circle cx="357" cy="231" r="4.2" fill="#050506"/><circle cx="399" cy="231" r="4.2" fill="#1b1c20"/><circle cx="441" cy="231" r="4.2" fill="#26364b"/><circle cx="483" cy="231" r="4.2" fill="#161619"/><circle cx="525" cy="231" r="4.2" fill="#242f40"/><circle cx="567" cy="231" r="4.2" fill="#020203"/><circle cx="609" cy="231" r="4.2" fill="#222a38"/><circle cx="651" cy="231" r="4.2" fill="#040405"/><circle cx="21" cy="273" r="4.2" fill="#19191c"/><circle cx="63" cy="273" r="4.2" fill="#1d2027"/><circle cx="105" cy="273" r="4.2" fill="#253245"/><circle cx="147" cy="273" r="4.2" fill="#171719"/><circle cx="189" cy="273" r="4.2" fill="#080809"/><circle cx="231" cy="273" r="4.2" fill="#1f2530"/><circle cx="273" cy="273" r="4.2" fill="#151517"/><circle cx="315" cy="273" r="4.2" fill="#253346"/><circle cx="357" cy="273" r="4.2" fill="#0e0e10"/><circle cx="399" cy="273" r="4.2" fill="#263549"/><circle cx="441" cy="273" r="4.2" fill="#000000"/><circle cx="483" cy="273" r="4.2" fill="#212a36"/><circle cx="525" cy="273" r="4.2" fill="#1b1b1e"/><circle cx="567" cy="273" r="4.2" fill="#1d1f24"/><circle cx="609" cy="273" r="4.2" fill="#1b1b1e"/><circle cx="651" cy="273" r="4.2" fill="#0c0c0d"/><circle cx="21" cy="315" r="4.2" fill="#080808"/><circle cx="63" cy="315" r="4.2" fill="#1b1b1e"/><circle cx="105" cy="315" r="4.2" fill="#253347"/><circle cx="147" cy="315" r="4.2" fill="#232e3d"/><circle cx="189" cy="315" r="4.2" fill="#141416"/><circle cx="231" cy="315" r="4.2" fill="#060607"/><circle cx="273" cy="315" r="4.2" fill="#080808"/><circle cx="315" cy="315" r="4.2" fill="#010101"/><circle cx="357" cy="315" r="4.2" fill="#263447"/><circle cx="399" cy="315" r="4.2" fill="#1e232c"/><circle cx="441" cy="315" r="4.2" fill="#050506"/><circle cx="483" cy="315" r="4.2" fill="#202630"/><circle cx="525" cy="315" r="4.2" fill="#1d2027"/><circle cx="567" cy="315" r="4.2" fill="#1d2127"/><circle cx="609" cy="315" r="4.2" fill="#26354a"/><circle cx="651" cy="315" r="4.2" fill="#010101"/><circle cx="21" cy="357" r="4.2" fill="#19191c"/><circle cx="63" cy="357" r="4.2" fill="#040405"/><circle cx="105" cy="357" r="4.2" fill="#111113"/><circle cx="147" cy="357" r="4.2" fill="#09090b"/><circle cx="189" cy="357" r="4.2" fill="#0d0d0e"/><circle cx="231" cy="357" r="4.2" fill="#202630"/><circle cx="273" cy="357" r="4.2" fill="#242f40"/><circle cx="315" cy="357" r="4.2" fill="#253244"/><circle cx="357" cy="357" r="4.2" fill="#1b1c20"/><circle cx="399" cy="357" r="4.2" fill="#050505"/><circle cx="441" cy="357" r="4.2" fill="#232e3e"/><circle cx="483" cy="357" r="4.2" fill="#1f252f"/><circle cx="525" cy="357" r="4.2" fill="#030303"/><circle cx="567" cy="357" r="4.2" fill="#101012"/><circle cx="609" cy="357" r="4.2" fill="#111113"/><circle cx="651" cy="357" r="4.2" fill="#1f242e"/></g></svg>