<?xml version="1.0" standalone="no"?><svg xmlns="http://www.w3.org/2000/svg" viewBox="0 0 1440 320"><path fill="#1b1b1e" fill-opacity="1" d="M0,160L40,181.3C80,203,160,245,240,234.7C320,224,400,160,480,149.3C560,139,640,181,720,176C800,171,880,117,960,117.3C1040,117,1120,171,1200,170.7C1280,171,1360,117,1400,90.7L1440,64L1440,320L1400,320C1360,320,1280,320,1200,320C1120,320,1040,320,960,320C880,320,800,320,720,320C640,320,560,320,480,320C400,320,320,320,240,320C160,320,80,320,40,320L0,320Z"></path></svg>